<mxfile host="app.diagrams.net" modified="20250526000000" agent="Mozilla/5.0 (Windows NT 10.0; Win64; x64) AppleWebKit/537.36 (KHTML, like Gecko) Chrome/120.0.0.0 Safari/537.36" etag="some-etag" version="21.0.0" type="device">
  <diagram id="farmers-market-architecture" name="Farmers Market System Architecture">
    <mxGraphModel dx="1422" dy="794" grid="1" gridSize="10" guides="1" tooltips="1" connect="1" arrows="1" fold="1" page="1" pageScale="1" pageWidth="1100" pageHeight="850" math="0" shadow="0">
      <root>
        <mxCell id="0" />
        <mxCell id="1" parent="0" />

        <!-- Frontend Systems -->
        <mxCell id="frontend-container" value="Frontend Applications" style="swimlane;fillColor=#dae8fc;strokeColor=#6c8ebf;fontStyle=1" vertex="1" parent="1">
          <mxGeometry x="50" y="50" width="300" height="200" as="geometry" />
        </mxCell>
        <mxCell id="web-app" value="Browser-based Web App" style="rounded=1;whiteSpace=wrap;html=1;fillColor=#dae8fc;strokeColor=#6c8ebf;" vertex="1" parent="frontend-container">
          <mxGeometry x="30" y="50" width="120" height="60" as="geometry" />
        </mxCell>
        <mxCell id="mobile-app" value="Mobile App&#xa;(React Native)" style="rounded=1;whiteSpace=wrap;html=1;fillColor=#dae8fc;strokeColor=#6c8ebf;" vertex="1" parent="frontend-container">
          <mxGeometry x="170" y="50" width="120" height="60" as="geometry" />
        </mxCell>
        <mxCell id="admin-dashboard" value="Admin Dashboard" style="rounded=1;whiteSpace=wrap;html=1;fillColor=#dae8fc;strokeColor=#6c8ebf;" vertex="1" parent="frontend-container">
          <mxGeometry x="30" y="130" width="120" height="60" as="geometry" />
        </mxCell>
        <mxCell id="farmer-dashboard" value="Farmer Dashboard" style="rounded=1;whiteSpace=wrap;html=1;fillColor=#dae8fc;strokeColor=#6c8ebf;" vertex="1" parent="frontend-container">
          <mxGeometry x="170" y="130" width="120" height="60" as="geometry" />
        </mxCell>

        <!-- API Layer -->
        <mxCell id="api-container" value="API Endpoints and Services" style="swimlane;fillColor=#d5e8d4;strokeColor=#82b366;fontStyle=1" vertex="1" parent="1">
          <mxGeometry x="400" y="50" width="300" height="200" as="geometry" />
        </mxCell>
        <mxCell id="auth-api" value="Authentication API&#xa;(login.php)" style="rounded=1;whiteSpace=wrap;html=1;fillColor=#d5e8d4;strokeColor=#82b366;" vertex="1" parent="api-container">
          <mxGeometry x="20" y="40" width="120" height="60" as="geometry" />
        </mxCell>
        <mxCell id="market-api" value="Market API&#xa;(market.php)" style="rounded=1;whiteSpace=wrap;html=1;fillColor=#d5e8d4;strokeColor=#82b366;" vertex="1" parent="api-container">
          <mxGeometry x="160" y="40" width="120" height="60" as="geometry" />
        </mxCell>
        <mxCell id="farmer-api" value="Farmer API&#xa;(farmer/)" style="rounded=1;whiteSpace=wrap;html=1;fillColor=#d5e8d4;strokeColor=#82b366;" vertex="1" parent="api-container">
          <mxGeometry x="20" y="120" width="120" height="60" as="geometry" />
        </mxCell>
        <mxCell id="order-api" value="Order API&#xa;(OrderController)" style="rounded=1;whiteSpace=wrap;html=1;fillColor=#d5e8d4;strokeColor=#82b366;" vertex="1" parent="api-container">
          <mxGeometry x="160" y="120" width="120" height="60" as="geometry" />
        </mxCell>

        <!-- Database Layer -->
        <mxCell id="db-container" value="Database Components" style="swimlane;fillColor=#fff2cc;strokeColor=#d6b656;fontStyle=1" vertex="1" parent="1">
          <mxGeometry x="50" y="300" width="300" height="200" as="geometry" />
        </mxCell>
        <mxCell id="user-db" value="User Management" style="shape=cylinder3;whiteSpace=wrap;html=1;boundedLbl=1;backgroundOutline=1;size=15;fillColor=#fff2cc;strokeColor=#d6b656;" vertex="1" parent="db-container">
          <mxGeometry x="30" y="50" width="100" height="60" as="geometry" />
        </mxCell>
        <mxCell id="product-db" value="Product Management" style="shape=cylinder3;whiteSpace=wrap;html=1;boundedLbl=1;backgroundOutline=1;size=15;fillColor=#fff2cc;strokeColor=#d6b656;" vertex="1" parent="db-container">
          <mxGeometry x="170" y="50" width="100" height="60" as="geometry" />
        </mxCell>
        <mxCell id="order-db" value="Order Management" style="shape=cylinder3;whiteSpace=wrap;html=1;boundedLbl=1;backgroundOutline=1;size=15;fillColor=#fff2cc;strokeColor=#d6b656;" vertex="1" parent="db-container">
          <mxGeometry x="30" y="130" width="100" height="60" as="geometry" />
        </mxCell>
        <mxCell id="ag-data-db" value="Agricultural Data" style="shape=cylinder3;whiteSpace=wrap;html=1;boundedLbl=1;backgroundOutline=1;size=15;fillColor=#fff2cc;strokeColor=#d6b656;" vertex="1" parent="db-container">
          <mxGeometry x="170" y="130" width="100" height="60" as="geometry" />
        </mxCell>

        <!-- Server Infrastructure -->
        <mxCell id="server-container" value="Server Infrastructure" style="swimlane;fillColor=#e1d5e7;strokeColor=#9673a6;fontStyle=1" vertex="1" parent="1">
          <mxGeometry x="400" y="300" width="300" height="200" as="geometry" />
        </mxCell>
        <mxCell id="web-server" value="Web Server&#xa;(XAMPP)" style="rounded=1;whiteSpace=wrap;html=1;fillColor=#e1d5e7;strokeColor=#9673a6;" vertex="1" parent="server-container">
          <mxGeometry x="30" y="50" width="120" height="60" as="geometry" />
        </mxCell>
        <mxCell id="db-server" value="Database Server&#xa;(MySQL)" style="rounded=1;whiteSpace=wrap;html=1;fillColor=#e1d5e7;strokeColor=#9673a6;" vertex="1" parent="server-container">
          <mxGeometry x="170" y="50" width="120" height="60" as="geometry" />
        </mxCell>
        <mxCell id="mobile-deploy" value="Mobile Deployment&#xa;(Expo/React Native)" style="rounded=1;whiteSpace=wrap;html=1;fillColor=#e1d5e7;strokeColor=#9673a6;" vertex="1" parent="server-container">
          <mxGeometry x="100" y="130" width="120" height="60" as="geometry" />
        </mxCell>

        <!-- Security Layer -->
        <mxCell id="security-container" value="Security Layers" style="swimlane;fillColor=#f8cecc;strokeColor=#b85450;fontStyle=1" vertex="1" parent="1">
          <mxGeometry x="750" y="50" width="300" height="180" as="geometry" />
        </mxCell>
        <mxCell id="auth-security" value="Authentication" style="rounded=1;whiteSpace=wrap;html=1;fillColor=#f8cecc;strokeColor=#b85450;" vertex="1" parent="security-container">
          <mxGeometry x="30" y="40" width="120" height="50" as="geometry" />
        </mxCell>
        <mxCell id="cors-security" value="CORS" style="rounded=1;whiteSpace=wrap;html=1;fillColor=#f8cecc;strokeColor=#b85450;" vertex="1" parent="security-container">
          <mxGeometry x="170" y="40" width="120" height="50" as="geometry" />
        </mxCell>
        <mxCell id="input-validation" value="Input Validation" style="rounded=1;whiteSpace=wrap;html=1;fillColor=#f8cecc;strokeColor=#b85450;" vertex="1" parent="security-container">
          <mxGeometry x="30" y="110" width="120" height="50" as="geometry" />
        </mxCell>
        <mxCell id="mobile-security" value="Mobile Security" style="rounded=1;whiteSpace=wrap;html=1;fillColor=#f8cecc;strokeColor=#b85450;" vertex="1" parent="security-container">
          <mxGeometry x="170" y="110" width="120" height="50" as="geometry" />
        </mxCell>

        <!-- Content Delivery -->
        <mxCell id="content-container" value="Content Delivery Systems" style="swimlane;fillColor=#ffe6cc;strokeColor=#d79b00;fontStyle=1" vertex="1" parent="1">
          <mxGeometry x="750" y="250" width="300" height="120" as="geometry" />
        </mxCell>
        <mxCell id="static-assets" value="Static Assets" style="rounded=1;whiteSpace=wrap;html=1;fillColor=#ffe6cc;strokeColor=#d79b00;" vertex="1" parent="content-container">
          <mxGeometry x="30" y="40" width="120" height="60" as="geometry" />
        </mxCell>
        <mxCell id="mobile-assets" value="Mobile Assets" style="rounded=1;whiteSpace=wrap;html=1;fillColor=#ffe6cc;strokeColor=#d79b00;" vertex="1" parent="content-container">
          <mxGeometry x="170" y="40" width="120" height="60" as="geometry" />
        </mxCell>

        <!-- Request/Response Flows -->
        <mxCell id="flows-container" value="Request/Response Flows" style="swimlane;fillColor=#b0e3e6;strokeColor=#0e8088;fontStyle=1" vertex="1" parent="1">
          <mxGeometry x="750" y="390" width="300" height="200" as="geometry" />
        </mxCell>
        <mxCell id="auth-flow" value="User Authentication" style="rounded=1;whiteSpace=wrap;html=1;fillColor=#b0e3e6;strokeColor=#0e8088;" vertex="1" parent="flows-container">
          <mxGeometry x="30" y="40" width="120" height="40" as="geometry" />
        </mxCell>
        <mxCell id="product-flow" value="Product Management" style="rounded=1;whiteSpace=wrap;html=1;fillColor=#b0e3e6;strokeColor=#0e8088;" vertex="1" parent="flows-container">
          <mxGeometry x="170" y="40" width="120" height="40" as="geometry" />
        </mxCell>
        <mxCell id="order-flow" value="Order Processing" style="rounded=1;whiteSpace=wrap;html=1;fillColor=#b0e3e6;strokeColor=#0e8088;" vertex="1" parent="flows-container">
          <mxGeometry x="30" y="100" width="120" height="40" as="geometry" />
        </mxCell>
        <mxCell id="reporting-flow" value="Reporting" style="rounded=1;whiteSpace=wrap;html=1;fillColor=#b0e3e6;strokeColor=#0e8088;" vertex="1" parent="flows-container">
          <mxGeometry x="170" y="100" width="120" height="40" as="geometry" />
        </mxCell>
        <mxCell id="farmer-data-flow" value="Farmer Data Management" style="rounded=1;whiteSpace=wrap;html=1;fillColor=#b0e3e6;strokeColor=#0e8088;" vertex="1" parent="flows-container">
          <mxGeometry x="100" y="150" width="120" height="40" as="geometry" />
        </mxCell>

        <!-- Connection Arrows -->
        <!-- Frontend to API -->
        <mxCell id="web-to-api" value="" style="endArrow=classic;startArrow=classic;html=1;rounded=0;exitX=1;exitY=0.5;exitDx=0;exitDy=0;entryX=0;entryY=0.5;entryDx=0;entryDy=0;" edge="1" parent="1" source="web-app" target="auth-api">
          <mxGeometry width="50" height="50" relative="1" as="geometry">
            <mxPoint x="220" y="100" as="sourcePoint" />
            <mxPoint x="270" y="50" as="targetPoint" />
          </mxGeometry>
        </mxCell>

        <mxCell id="mobile-to-api" value="" style="endArrow=classic;startArrow=classic;html=1;rounded=0;exitX=1;exitY=0.5;exitDx=0;exitDy=0;entryX=0;entryY=0.5;entryDx=0;entryDy=0;" edge="1" parent="1" source="mobile-app" target="market-api">
          <mxGeometry width="50" height="50" relative="1" as="geometry">
            <mxPoint x="220" y="130" as="sourcePoint" />
            <mxPoint x="270" y="80" as="targetPoint" />
          </mxGeometry>
        </mxCell>

        <mxCell id="farmer-dash-to-api" value="" style="endArrow=classic;startArrow=classic;html=1;rounded=0;exitX=1;exitY=0.5;exitDx=0;exitDy=0;entryX=0;entryY=0.5;entryDx=0;entryDy=0;" edge="1" parent="1" source="farmer-dashboard" target="farmer-api">
          <mxGeometry width="50" height="50" relative="1" as="geometry">
            <mxPoint x="220" y="190" as="sourcePoint" />
            <mxPoint x="270" y="140" as="targetPoint" />
          </mxGeometry>
        </mxCell>

        <mxCell id="admin-to-order" value="" style="endArrow=classic;startArrow=classic;html=1;rounded=0;exitX=1;exitY=0.5;exitDx=0;exitDy=0;entryX=0;entryY=0.5;entryDx=0;entryDy=0;" edge="1" parent="1" source="admin-dashboard" target="order-api">
          <mxGeometry width="50" height="50" relative="1" as="geometry">
            <mxPoint x="220" y="190" as="sourcePoint" />
            <mxPoint x="270" y="140" as="targetPoint" />
          </mxGeometry>
        </mxCell>

        <!-- API to Database -->
        <mxCell id="api-to-db" value="" style="endArrow=classic;startArrow=classic;html=1;rounded=0;exitX=0.5;exitY=1;exitDx=0;exitDy=0;entryX=0.5;entryY=0;entryDx=0;entryDy=0;" edge="1" parent="1" source="api-container" target="db-container">
          <mxGeometry width="50" height="50" relative="1" as="geometry">
            <mxPoint x="380" y="300" as="sourcePoint" />
            <mxPoint x="430" y="250" as="targetPoint" />
            <Array as="points">
              <mxPoint x="550" y="270" />
              <mxPoint x="200" y="270" />
            </Array>
          </mxGeometry>
        </mxCell>

        <!-- API to Server -->
        <mxCell id="api-to-server" value="" style="endArrow=classic;startArrow=classic;html=1;rounded=0;exitX=0.5;exitY=1;exitDx=0;exitDy=0;entryX=0.5;entryY=0;entryDx=0;entryDy=0;" edge="1" parent="1" source="api-container" target="server-container">
          <mxGeometry width="50" height="50" relative="1" as="geometry">
            <mxPoint x="520" y="300" as="sourcePoint" />
            <mxPoint x="570" y="250" as="targetPoint" />
          </mxGeometry>
        </mxCell>

        <!-- API to Security -->
        <mxCell id="api-to-security" value="" style="endArrow=classic;startArrow=classic;html=1;rounded=0;exitX=1;exitY=0.5;exitDx=0;exitDy=0;entryX=0;entryY=0.5;entryDx=0;entryDy=0;" edge="1" parent="1" source="api-container" target="security-container">
          <mxGeometry width="50" height="50" relative="1" as="geometry">
            <mxPoint x="700" y="160" as="sourcePoint" />
            <mxPoint x="750" y="110" as="targetPoint" />
          </mxGeometry>
        </mxCell>

        <!-- Database to Server -->
        <mxCell id="db-to-server" value="" style="endArrow=classic;startArrow=classic;html=1;rounded=0;exitX=1;exitY=0.5;exitDx=0;exitDy=0;entryX=0;entryY=0.5;entryDx=0;entryDy=0;" edge="1" parent="1" source="db-container" target="server-container">
          <mxGeometry width="50" height="50" relative="1" as="geometry">
            <mxPoint x="350" y="340" as="sourcePoint" />
            <mxPoint x="400" y="310" as="targetPoint" />
          </mxGeometry>
        </mxCell>

        <!-- Content to Server -->
        <mxCell id="content-to-server" value="" style="endArrow=classic;startArrow=classic;html=1;rounded=0;exitX=0;exitY=0.5;exitDx=0;exitDy=0;entryX=1;entryY=0.5;entryDx=0;entryDy=0;" edge="1" parent="1" source="content-container" target="server-container">
          <mxGeometry width="50" height="50" relative="1" as="geometry">
            <mxPoint x="700" y="310" as="sourcePoint" />
            <mxPoint x="750" y="310" as="targetPoint" />
          </mxGeometry>
        </mxCell>

        <!-- Flows to API -->
        <mxCell id="flows-to-api" value="" style="endArrow=classic;startArrow=classic;html=1;rounded=0;exitX=0;exitY=0.5;exitDx=0;exitDy=0;entryX=1;entryY=1;entryDx=0;entryDy=0;" edge="1" parent="1" source="flows-container" target="api-container">
          <mxGeometry width="50" height="50" relative="1" as="geometry">
            <mxPoint x="700" y="360" as="sourcePoint" />
            <mxPoint x="750" y="310" as="targetPoint" />
            <Array as="points">
              <mxPoint x="700" y="490" />
              <mxPoint x="700" y="250" />
            </Array>
          </mxGeometry>
        </mxCell>

        <!-- Mobile to Mobile Deploy -->
        <mxCell id="mobile-to-deploy" value="" style="endArrow=classic;startArrow=classic;html=1;rounded=0;exitX=0.5;exitY=1;exitDx=0;exitDy=0;entryX=0;entryY=0;entryDx=0;entryDy=0;" edge="1" parent="1" source="mobile-app" target="mobile-deploy">
          <mxGeometry width="50" height="50" relative="1" as="geometry">
            <mxPoint x="230" y="250" as="sourcePoint" />
            <mxPoint x="280" y="200" as="targetPoint" />
            <Array as="points">
              <mxPoint x="230" y="220" />
              <mxPoint x="230" y="280" />
              <mxPoint x="100" y="280" />
              <mxPoint x="100" y="430" />
            </Array>
          </mxGeometry>
        </mxCell>

      </root>
    </mxGraphModel>
  </diagram>
</mxfile>
